<?xml version="1.0" encoding="utf-8"?>
<!-- Generator: Adobe Illustrator 26.0.2, SVG Export Plug-In . SVG Version: 6.00 Build 0)  -->
<svg version="1.1" id="Calque_1" xmlns="http://www.w3.org/2000/svg" xmlns:xlink="http://www.w3.org/1999/xlink" x="0px" y="0px"
	 viewBox="0 0 781.2 514.1" style="enable-background:new 0 0 781.2 514.1;" xml:space="preserve">
<style type="text/css">
	.st0{fill:#1C1247;}
	.st1{fill:#342858;}
</style>
<rect class="st0" width="781.2" height="514.1"/>
<g>
	<g>
		<circle class="st1" cx="316.3" cy="66.5" r="9.2"/>
		<circle class="st1" cx="341.1" cy="66.5" r="9.2"/>
		<circle class="st1" cx="365.9" cy="66.5" r="9.2"/>
		<circle class="st1" cx="390.8" cy="66.5" r="9.2"/>
		<circle class="st1" cx="415.6" cy="66.5" r="9.2"/>
		<circle class="st1" cx="440.4" cy="66.5" r="9.2"/>
		<circle class="st1" cx="465.2" cy="66.5" r="9.2"/>
		<circle class="st1" cx="490.1" cy="66.5" r="9.2"/>
		<circle class="st1" cx="514.9" cy="66.5" r="9.2"/>
		<circle class="st1" cx="539.7" cy="66.5" r="9.2"/>
		<circle class="st1" cx="564.5" cy="66.5" r="9.2"/>
		<circle class="st1" cx="589.4" cy="66.5" r="9.2"/>
		<circle class="st1" cx="614.2" cy="66.5" r="9.2"/>
		<circle class="st1" cx="639" cy="66.5" r="9.2"/>
		<circle class="st1" cx="663.8" cy="66.5" r="9.2"/>
		<circle class="st1" cx="688.7" cy="66.5" r="9.2"/>
		<circle class="st1" cx="713.5" cy="66.5" r="9.2"/>
		<circle class="st1" cx="738.3" cy="66.5" r="9.2"/>
	</g>
</g>
<g>
	<g>
		<circle class="st1" cx="264.9" cy="21.2" r="9.2"/>
		<circle class="st1" cx="289.8" cy="21.2" r="9.2"/>
		<circle class="st1" cx="314.8" cy="21.2" r="9.2"/>
		<circle class="st1" cx="339.7" cy="21.2" r="9.2"/>
		<circle class="st1" cx="364.7" cy="21.2" r="9.2"/>
		<circle class="st1" cx="389.6" cy="21.2" r="9.2"/>
		<circle class="st1" cx="414.5" cy="21.2" r="9.2"/>
		<circle class="st1" cx="439.5" cy="21.2" r="9.2"/>
		<circle class="st1" cx="464.4" cy="21.2" r="9.2"/>
		<circle class="st1" cx="489.4" cy="21.2" r="9.2"/>
		<circle class="st1" cx="514.3" cy="21.2" r="9.2"/>
		<circle class="st1" cx="539.2" cy="21.2" r="9.2"/>
		<circle class="st1" cx="564.2" cy="21.2" r="9.2"/>
		<circle class="st1" cx="589.1" cy="21.2" r="9.2"/>
		<circle class="st1" cx="614.1" cy="21.2" r="9.2"/>
		<circle class="st1" cx="639" cy="21.2" r="9.2"/>
		<circle class="st1" cx="663.9" cy="21.2" r="9.2"/>
		<circle class="st1" cx="688.9" cy="21.2" r="9.2"/>
		<circle class="st1" cx="713.8" cy="21.2" r="9.2"/>
		<circle class="st1" cx="738.8" cy="21.2" r="9.2"/>
		<circle class="st1" cx="763.7" cy="21.2" r="9.2"/>
	</g>
</g>
<g>
	<g>
		<circle class="st1" cx="304" cy="44.4" r="9.2"/>
		<circle class="st1" cx="328.9" cy="44.4" r="9.2"/>
		<circle class="st1" cx="353.7" cy="44.4" r="9.2"/>
		<circle class="st1" cx="378.5" cy="44.4" r="9.2"/>
		<circle class="st1" cx="403.4" cy="44.4" r="9.2"/>
		<circle class="st1" cx="428.2" cy="44.4" r="9.2"/>
		<circle class="st1" cx="453.1" cy="44.4" r="9.2"/>
		<circle class="st1" cx="477.9" cy="44.4" r="9.2"/>
		<circle class="st1" cx="502.7" cy="44.4" r="9.2"/>
		<circle class="st1" cx="527.6" cy="44.4" r="9.2"/>
		<circle class="st1" cx="552.4" cy="44.4" r="9.2"/>
		<circle class="st1" cx="577.3" cy="44.4" r="9.2"/>
		<circle class="st1" cx="602.1" cy="44.4" r="9.2"/>
		<circle class="st1" cx="626.9" cy="44.4" r="9.2"/>
		<circle class="st1" cx="651.8" cy="44.4" r="9.2"/>
		<circle class="st1" cx="676.6" cy="44.4" r="9.2"/>
		<circle class="st1" cx="701.5" cy="44.4" r="9.2"/>
		<circle class="st1" cx="726.3" cy="44.4" r="9.2"/>
		<circle class="st1" cx="751.1" cy="44.4" r="9.2"/>
	</g>
</g>
<g>
	<g>
		<circle class="st1" cx="329.9" cy="89.9" r="9"/>
		<circle class="st1" cx="354.6" cy="89.9" r="9"/>
		<circle class="st1" cx="379.4" cy="89.9" r="9"/>
		<circle class="st1" cx="404.2" cy="89.9" r="9"/>
		<circle class="st1" cx="429" cy="89.9" r="9"/>
		<circle class="st1" cx="453.8" cy="89.9" r="9"/>
		<circle class="st1" cx="478.5" cy="89.9" r="9"/>
		<circle class="st1" cx="503.3" cy="89.9" r="9"/>
		<circle class="st1" cx="528.1" cy="89.9" r="9"/>
		<circle class="st1" cx="552.9" cy="89.9" r="9"/>
		<circle class="st1" cx="577.7" cy="89.9" r="9"/>
		<circle class="st1" cx="602.5" cy="89.9" r="9"/>
		<circle class="st1" cx="627.2" cy="89.9" r="9"/>
		<circle class="st1" cx="652" cy="89.9" r="9"/>
		<circle class="st1" cx="676.8" cy="89.9" r="9"/>
		<circle class="st1" cx="701.6" cy="89.9" r="9"/>
		<circle class="st1" cx="726.4" cy="89.9" r="9"/>
		<circle class="st1" cx="751.1" cy="89.9" r="9"/>
	</g>
</g>
<g>
	<g>
		<circle class="st1" cx="449" cy="291.4" r="9"/>
		<circle class="st1" cx="474.5" cy="291.4" r="9"/>
		<circle class="st1" cx="500.1" cy="291.4" r="9"/>
	</g>
</g>
<g>
	<g>
		<circle class="st1" cx="633.2" cy="291.4" r="9"/>
		<circle class="st1" cx="658.8" cy="291.4" r="9"/>
		<circle class="st1" cx="684.3" cy="291.4" r="9"/>
	</g>
</g>
<circle class="st1" cx="25.6" cy="21.2" r="9"/>
<g>
	<g>
		<circle class="st1" cx="329.9" cy="180.5" r="9"/>
		<circle class="st1" cx="354.2" cy="180.5" r="9"/>
		<circle class="st1" cx="378.5" cy="180.5" r="9"/>
		<circle class="st1" cx="402.8" cy="180.5" r="9"/>
		<circle class="st1" cx="427.2" cy="180.5" r="9"/>
		<circle class="st1" cx="451.5" cy="180.5" r="9"/>
		<circle class="st1" cx="475.8" cy="180.5" r="9"/>
		<circle class="st1" cx="500.2" cy="180.5" r="9"/>
		<circle class="st1" cx="524.5" cy="180.5" r="9"/>
		<circle class="st1" cx="548.8" cy="180.5" r="9"/>
		<circle class="st1" cx="573.2" cy="180.5" r="9"/>
		<circle class="st1" cx="597.5" cy="180.5" r="9"/>
		<circle class="st1" cx="621.8" cy="180.5" r="9"/>
		<circle class="st1" cx="646.1" cy="180.5" r="9"/>
	</g>
</g>
<g>
	<g>
		<circle class="st1" cx="329.9" cy="136.3" r="9"/>
		<circle class="st1" cx="354.5" cy="136.3" r="9"/>
		<circle class="st1" cx="379.1" cy="136.3" r="9"/>
		<circle class="st1" cx="403.7" cy="136.3" r="9"/>
		<circle class="st1" cx="428.3" cy="136.3" r="9"/>
		<circle class="st1" cx="452.9" cy="136.3" r="9"/>
		<circle class="st1" cx="477.5" cy="136.3" r="9"/>
		<circle class="st1" cx="502.1" cy="136.3" r="9"/>
		<circle class="st1" cx="526.7" cy="136.3" r="9"/>
		<circle class="st1" cx="551.3" cy="136.3" r="9"/>
		<circle class="st1" cx="575.9" cy="136.3" r="9"/>
		<circle class="st1" cx="600.5" cy="136.3" r="9"/>
		<circle class="st1" cx="625.1" cy="136.3" r="9"/>
		<circle class="st1" cx="649.7" cy="136.3" r="9"/>
		<circle class="st1" cx="674.4" cy="136.3" r="9"/>
		<circle class="st1" cx="699" cy="136.3" r="9"/>
	</g>
</g>
<g>
	<g>
		<circle class="st1" cx="316.3" cy="113.1" r="9"/>
		<circle class="st1" cx="341.1" cy="113.1" r="9"/>
		<circle class="st1" cx="365.9" cy="113.1" r="9"/>
		<circle class="st1" cx="390.8" cy="113.1" r="9"/>
		<circle class="st1" cx="415.6" cy="113.1" r="9"/>
		<circle class="st1" cx="440.4" cy="113.1" r="9"/>
		<circle class="st1" cx="465.2" cy="113.1" r="9"/>
		<circle class="st1" cx="490.1" cy="113.1" r="9"/>
		<circle class="st1" cx="514.9" cy="113.1" r="9"/>
		<circle class="st1" cx="539.7" cy="113.1" r="9"/>
		<circle class="st1" cx="564.5" cy="113.1" r="9"/>
		<circle class="st1" cx="589.4" cy="113.1" r="9"/>
		<circle class="st1" cx="614.2" cy="113.1" r="9"/>
		<circle class="st1" cx="639" cy="113.1" r="9"/>
		<circle class="st1" cx="663.8" cy="113.1" r="9"/>
		<circle class="st1" cx="688.7" cy="113.1" r="9"/>
		<circle class="st1" cx="713.5" cy="113.1" r="9"/>
		<circle class="st1" cx="738.3" cy="113.1" r="9"/>
	</g>
</g>
<g>
	<g>
		<circle class="st1" cx="316.3" cy="157.9" r="9"/>
		<circle class="st1" cx="340.8" cy="157.9" r="9"/>
		<circle class="st1" cx="365.4" cy="157.9" r="9"/>
		<circle class="st1" cx="389.9" cy="157.9" r="9"/>
		<circle class="st1" cx="414.5" cy="157.9" r="9"/>
		<circle class="st1" cx="439.1" cy="157.9" r="9"/>
		<circle class="st1" cx="463.6" cy="157.9" r="9"/>
		<circle class="st1" cx="488.2" cy="157.9" r="9"/>
		<circle class="st1" cx="512.7" cy="157.9" r="9"/>
		<circle class="st1" cx="537.3" cy="157.9" r="9"/>
		<circle class="st1" cx="561.8" cy="157.9" r="9"/>
		<circle class="st1" cx="586.4" cy="157.9" r="9"/>
		<circle class="st1" cx="610.9" cy="157.9" r="9"/>
		<circle class="st1" cx="635.5" cy="157.9" r="9"/>
		<circle class="st1" cx="660.1" cy="157.9" r="9"/>
	</g>
</g>
<g>
	<g>
		<circle class="st1" cx="368.7" cy="203.1" r="9"/>
		<circle class="st1" cx="392.6" cy="203.1" r="9"/>
		<circle class="st1" cx="416.5" cy="203.1" r="9"/>
		<circle class="st1" cx="440.4" cy="203.1" r="9"/>
		<circle class="st1" cx="464.2" cy="203.1" r="9"/>
		<circle class="st1" cx="488.1" cy="203.1" r="9"/>
		<circle class="st1" cx="512" cy="203.1" r="9"/>
		<circle class="st1" cx="535.9" cy="203.1" r="9"/>
		<circle class="st1" cx="559.8" cy="203.1" r="9"/>
		<circle class="st1" cx="583.7" cy="203.1" r="9"/>
		<circle class="st1" cx="607.6" cy="203.1" r="9"/>
		<circle class="st1" cx="631.4" cy="203.1" r="9"/>
	</g>
</g>
<g>
	<g>
		<circle class="st1" cx="380.6" cy="225.7" r="9"/>
		<circle class="st1" cx="406.9" cy="225.7" r="9"/>
		<circle class="st1" cx="433.3" cy="225.7" r="9"/>
		<circle class="st1" cx="459.6" cy="225.7" r="9"/>
		<circle class="st1" cx="485.9" cy="225.7" r="9"/>
		<circle class="st1" cx="512.3" cy="225.7" r="9"/>
		<circle class="st1" cx="538.6" cy="225.7" r="9"/>
		<circle class="st1" cx="565" cy="225.7" r="9"/>
		<circle class="st1" cx="591.3" cy="225.7" r="9"/>
		<circle class="st1" cx="617.6" cy="225.7" r="9"/>
	</g>
</g>
<g>
	<g>
		<circle class="st1" cx="396.1" cy="248.3" r="9"/>
		<circle class="st1" cx="422.6" cy="248.3" r="9"/>
		<circle class="st1" cx="449.2" cy="248.3" r="9"/>
		<circle class="st1" cx="475.7" cy="248.3" r="9"/>
		<circle class="st1" cx="502.3" cy="248.3" r="9"/>
	</g>
</g>
<g>
	<g>
		<circle class="st1" cx="409.9" cy="269" r="9"/>
		<circle class="st1" cx="436" cy="269" r="9"/>
		<circle class="st1" cx="462.1" cy="269" r="9"/>
		<circle class="st1" cx="488.2" cy="269" r="9"/>
	</g>
</g>
<circle class="st1" cx="552.5" cy="291.4" r="9"/>
<circle class="st1" cx="580.5" cy="291.4" r="9"/>
<circle class="st1" cx="619.6" cy="269" r="9"/>
<circle class="st1" cx="647.6" cy="269" r="9"/>
<circle class="st1" cx="603.6" cy="248.3" r="9"/>
<circle class="st1" cx="631.6" cy="248.3" r="9"/>
<g>
	<g>
		<circle class="st1" cx="460.7" cy="313.8" r="9"/>
		<circle class="st1" cx="487.2" cy="313.8" r="9"/>
		<circle class="st1" cx="513.7" cy="313.8" r="9"/>
		<circle class="st1" cx="540.3" cy="313.8" r="9"/>
		<circle class="st1" cx="566.8" cy="313.8" r="9"/>
	</g>
</g>
<g>
	<g>
		<circle class="st1" cx="646.1" cy="313.8" r="9"/>
		<circle class="st1" cx="672.7" cy="313.8" r="9"/>
		<circle class="st1" cx="699.2" cy="313.8" r="9"/>
		<circle class="st1" cx="725.7" cy="313.8" r="9"/>
		<circle class="st1" cx="752.3" cy="313.8" r="9"/>
	</g>
</g>
<g>
	<g>
		<circle class="st1" cx="527.4" cy="337.3" r="9"/>
		<circle class="st1" cx="554.5" cy="337.3" r="9"/>
		<circle class="st1" cx="581.6" cy="337.3" r="9"/>
		<circle class="st1" cx="608.6" cy="337.3" r="9"/>
	</g>
</g>
<circle class="st1" cx="594.6" cy="360.9" r="9"/>
<circle class="st1" cx="764.7" cy="337.3" r="9"/>
<g>
	<g>
		<circle class="st1" cx="672.1" cy="360.9" r="9"/>
		<circle class="st1" cx="698.8" cy="360.9" r="9"/>
		<circle class="st1" cx="725.6" cy="360.9" r="9"/>
		<circle class="st1" cx="752.3" cy="360.9" r="9"/>
	</g>
</g>
<g>
	<g>
		<circle class="st1" cx="606.5" cy="382.4" r="9"/>
		<circle class="st1" cx="632.9" cy="382.4" r="9"/>
		<circle class="st1" cx="659.3" cy="382.4" r="9"/>
		<circle class="st1" cx="685.6" cy="382.4" r="9"/>
		<circle class="st1" cx="712" cy="382.4" r="9"/>
		<circle class="st1" cx="738.3" cy="382.4" r="9"/>
		<circle class="st1" cx="764.7" cy="382.4" r="9"/>
	</g>
</g>
<g>
	<g>
		<circle class="st1" cx="646.1" cy="405.6" r="9"/>
		<circle class="st1" cx="672.7" cy="405.6" r="9"/>
		<circle class="st1" cx="699.2" cy="405.6" r="9"/>
		<circle class="st1" cx="725.7" cy="405.6" r="9"/>
		<circle class="st1" cx="752.3" cy="405.6" r="9"/>
	</g>
</g>
<g>
	<g>
		<circle class="st1" cx="633.2" cy="427.6" r="9"/>
		<circle class="st1" cx="659.5" cy="427.6" r="9"/>
		<circle class="st1" cx="685.8" cy="427.6" r="9"/>
		<circle class="st1" cx="712.1" cy="427.6" r="9"/>
		<circle class="st1" cx="738.4" cy="427.6" r="9"/>
		<circle class="st1" cx="764.7" cy="427.6" r="9"/>
	</g>
</g>
<g>
	<g>
		<circle class="st1" cx="619.6" cy="449.5" r="9"/>
		<circle class="st1" cx="645.8" cy="449.5" r="9"/>
		<circle class="st1" cx="672" cy="449.5" r="9"/>
		<circle class="st1" cx="698.1" cy="449.5" r="9"/>
		<circle class="st1" cx="724.3" cy="449.5" r="9"/>
		<circle class="st1" cx="750.4" cy="449.5" r="9"/>
	</g>
</g>
<g>
	<g>
		<circle class="st1" cx="633.2" cy="473.1" r="9"/>
		<circle class="st1" cx="659.5" cy="473.1" r="9"/>
		<circle class="st1" cx="685.8" cy="473.1" r="9"/>
		<circle class="st1" cx="712.1" cy="473.1" r="9"/>
		<circle class="st1" cx="738.4" cy="473.1" r="9"/>
		<circle class="st1" cx="764.7" cy="473.1" r="9"/>
	</g>
</g>
<g>
	<g>
		<circle class="st1" cx="619.6" cy="495.7" r="9"/>
		<circle class="st1" cx="645.8" cy="495.7" r="9"/>
		<circle class="st1" cx="672" cy="495.7" r="9"/>
		<circle class="st1" cx="698.1" cy="495.7" r="9"/>
		<circle class="st1" cx="724.3" cy="495.7" r="9"/>
		<circle class="st1" cx="750.4" cy="495.7" r="9"/>
	</g>
</g>
<path class="st1" d="M777.5,396c-5,0-9,4-9,9s4,9,9,9c1.3,0,2.6-0.3,3.7-0.8v-16.4C780.1,396.3,778.8,396,777.5,396z"/>
<path class="st1" d="M777.5,33.9c-5,0-9,4-9,9s4,9,9,9c1.3,0,2.6-0.3,3.7-0.8V34.7C780.1,34.2,778.8,33.9,777.5,33.9z"/>
<path class="st1" d="M777.5,440.5c-5,0-9,4-9,9s4,9,9,9c1.3,0,2.6-0.3,3.7-0.8v-16.4C780.1,440.8,778.8,440.5,777.5,440.5z"/>
<path class="st1" d="M777.5,486.7c-5,0-9,4-9,9s4,9,9,9c1.3,0,2.6-0.3,3.7-0.8v-16.4C780.1,487,778.8,486.7,777.5,486.7z"/>
</svg>
